<svg width="89" height="91" viewBox="0 0 89 91" fill="none" xmlns="http://www.w3.org/2000/svg">
<g filter="url(#filter0_d_46_203)">
<path d="M84.4167 43C84.4167 64.8113 66.5866 82.5 44.5833 82.5C22.5801 82.5 4.75 64.8113 4.75 43C4.75 21.1887 22.5801 3.5 44.5833 3.5C66.5866 3.5 84.4167 21.1887 84.4167 43Z" fill="#00BCD4" stroke="#00BCD4"/>
<path d="M45.6917 47.5H59.6717C59.3117 49.14 58.7317 50.68 57.9317 52.12C57.1717 53.56 56.1917 54.84 54.9917 55.96C53.7917 57.08 52.3517 57.96 50.6717 58.6C49.0317 59.2 47.1717 59.5 45.0917 59.5C42.1317 59.5 39.4517 58.8 37.0517 57.4C34.6517 56 32.7317 54.06 31.2917 51.58C29.8917 49.1 29.1917 46.24 29.1917 43C29.1917 39.72 29.8917 36.86 31.2917 34.42C32.7317 31.94 34.6517 30 37.0517 28.6C39.4517 27.2 42.1317 26.5 45.0917 26.5C48.2917 26.5 51.0717 27.14 53.4317 28.42C55.7917 29.66 57.6317 31.4 58.9517 33.64L62.5517 30.34C61.3517 28.38 59.8717 26.74 58.1117 25.42C56.3917 24.1 54.4317 23.1 52.2317 22.42C50.0717 21.74 47.6917 21.4 45.0917 21.4C42.0517 21.4 39.2317 21.94 36.6317 23.02C34.0317 24.06 31.7717 25.56 29.8517 27.52C27.9317 29.44 26.4317 31.72 25.3517 34.36C24.3117 37 23.7917 39.88 23.7917 43C23.7917 46.12 24.3117 49 25.3517 51.64C26.4317 54.28 27.9317 56.58 29.8517 58.54C31.7717 60.46 34.0317 61.96 36.6317 63.04C39.2317 64.08 42.0517 64.6 45.0917 64.6C48.2917 64.6 51.1317 64.02 53.6117 62.86C56.1317 61.66 58.2517 60.04 59.9717 58C61.6917 55.96 62.9917 53.64 63.8717 51.04C64.7517 48.4 65.1917 45.62 65.1917 42.7H45.6917V47.5Z" fill="black"/>
</g>
<defs>
<filter id="filter0_d_46_203" x="0.25" y="3" width="88.6666" height="88" filterUnits="userSpaceOnUse" color-interpolation-filters="sRGB">
<feFlood flood-opacity="0" result="BackgroundImageFix"/>
<feColorMatrix in="SourceAlpha" type="matrix" values="0 0 0 0 0 0 0 0 0 0 0 0 0 0 0 0 0 0 127 0" result="hardAlpha"/>
<feOffset dy="4"/>
<feGaussianBlur stdDeviation="2"/>
<feComposite in2="hardAlpha" operator="out"/>
<feColorMatrix type="matrix" values="0 0 0 0 0 0 0 0 0 0 0 0 0 0 0 0 0 0 0.25 0"/>
<feBlend mode="normal" in2="BackgroundImageFix" result="effect1_dropShadow_46_203"/>
<feBlend mode="normal" in="SourceGraphic" in2="effect1_dropShadow_46_203" result="shape"/>
</filter>
</defs>
</svg>
